<svg fill="none" xmlns="http://www.w3.org/2000/svg">
    <g id="location">
        <svg width="12" height="12" viewBox="0 0 12 12" fill="none" xmlns="http://www.w3.org/2000/svg">
            <path d="M2.5 1.5V10.5H5.5V8.75H6.5V10.5H9.5V1.5H2.5ZM3.5 2.5H4.5V3.5H3.5V2.5ZM5.5 2.5H6.5V3.5H5.5V2.5ZM7.5 2.5H8.5V3.5H7.5V2.5ZM3.5 4.5H4.5V5.5H3.5V4.5ZM5.5 4.5H6.5V5.5H5.5V4.5ZM7.5 4.5H8.5V5.5H7.5V4.5ZM3.5 6.5H4.5V7.5H3.5V6.5ZM5.5 6.5H6.5V7.5H5.5V6.5ZM7.5 6.5H8.5V7.5H7.5V6.5ZM3.5 8.5H4.5V9.5H3.5V8.5ZM7.5 8.5H8.5V9.5H7.5V8.5Z"
                  fill="#A7A7A7"/>
        </svg>
    </g>
    <g id="building">
        <svg width="12" height="12" viewBox="0 0 12 12" fill="none" xmlns="http://www.w3.org/2000/svg">
            <path d="M6 6.75C5.62916 6.75 5.26665 6.64003 4.95831 6.43401C4.64996 6.22798 4.40964 5.93514 4.26773 5.59253C4.12581 5.24992 4.08868 4.87292 4.16103 4.50921C4.23338 4.14549 4.41195 3.8114 4.67418 3.54918C4.9364 3.28695 5.27049 3.10838 5.63421 3.03603C5.99792 2.96368 6.37492 3.00081 6.71753 3.14273C7.06014 3.28464 7.35298 3.52496 7.55901 3.83331C7.76503 4.14165 7.875 4.50416 7.875 4.875C7.87441 5.3721 7.67667 5.84867 7.32517 6.20017C6.97367 6.55167 6.4971 6.74941 6 6.75ZM6 3.75C5.7775 3.75 5.55999 3.81598 5.37498 3.9396C5.18998 4.06321 5.04579 4.23892 4.96064 4.44448C4.87549 4.65005 4.85321 4.87625 4.89662 5.09448C4.94003 5.31271 5.04717 5.51316 5.20451 5.6705C5.36184 5.82783 5.5623 5.93498 5.78052 5.97838C5.99875 6.02179 6.22495 5.99951 6.43052 5.91437C6.63609 5.82922 6.81179 5.68502 6.9354 5.50002C7.05902 5.31501 7.125 5.09751 7.125 4.875C7.1247 4.57672 7.00608 4.29075 6.79517 4.07983C6.58425 3.86892 6.29828 3.7503 6 3.75Z"
                  fill="#A7A7A7"/>
            <path d="M6 11.25L2.8365 7.51912C2.79255 7.4631 2.74905 7.40673 2.706 7.35C2.16562 6.63817 1.87369 5.76871 1.875 4.875C1.875 3.78098 2.3096 2.73177 3.08319 1.95818C3.85678 1.1846 4.90599 0.75 6 0.75C7.09402 0.75 8.14323 1.1846 8.91682 1.95818C9.69041 2.73177 10.125 3.78098 10.125 4.875C10.1263 5.7683 9.83452 6.63737 9.29438 7.34888L9.294 7.35C9.294 7.35 9.1815 7.49775 9.16463 7.51763L6 11.25ZM3.3045 6.89813C3.30525 6.89813 3.39225 7.01362 3.41213 7.03837L6 10.0905L8.59125 7.03425C8.60775 7.01362 8.6955 6.89738 8.69588 6.897C9.13731 6.31542 9.37587 5.60514 9.375 4.875C9.375 3.97989 9.01942 3.12145 8.38649 2.48851C7.75355 1.85558 6.89511 1.5 6 1.5C5.1049 1.5 4.24645 1.85558 3.61352 2.48851C2.98058 3.12145 2.625 3.97989 2.625 4.875C2.62422 5.60559 2.86305 6.31628 3.30488 6.89813H3.3045Z"
                  fill="#A7A7A7"/>
        </svg>
    </g>
    <g id="time">
        <g clip-path="url(#clip0_55630_362)">
            <path d="M5.33341 6.5C5.1566 6.5 4.98703 6.44732 4.86201 6.35355C4.73699 6.25979 4.66675 6.13261 4.66675 6C4.66675 5.86739 4.73699 5.74021 4.86201 5.64645C4.98703 5.55268 5.1566 5.5 5.33341 5.5C5.51023 5.5 5.67979 5.55268 5.80482 5.64645C5.92984 5.74021 6.00008 5.86739 6.00008 6C6.00008 6.13261 5.92984 6.25979 5.80482 6.35355C5.67979 6.44732 5.51023 6.5 5.33341 6.5ZM5.33341 8.5C5.1566 8.5 4.98703 8.44732 4.86201 8.35355C4.73699 8.25979 4.66675 8.13261 4.66675 8C4.66675 7.86739 4.73699 7.74021 4.86201 7.64645C4.98703 7.55268 5.1566 7.5 5.33341 7.5C5.51023 7.5 5.67979 7.55268 5.80482 7.64645C5.92984 7.74021 6.00008 7.86739 6.00008 8C6.00008 8.13261 5.92984 8.25979 5.80482 8.35355C5.67979 8.44732 5.51023 8.5 5.33341 8.5ZM7.33341 8C7.33341 8.13261 7.40365 8.25979 7.52868 8.35355C7.6537 8.44732 7.82327 8.5 8.00008 8.5C8.17689 8.5 8.34646 8.44732 8.47149 8.35355C8.59651 8.25979 8.66675 8.13261 8.66675 8C8.66675 7.86739 8.59651 7.74021 8.47149 7.64645C8.34646 7.55268 8.17689 7.5 8.00008 7.5C7.82327 7.5 7.6537 7.55268 7.52868 7.64645C7.40365 7.74021 7.33341 7.86739 7.33341 8ZM10.6667 8.5C10.4899 8.5 10.3204 8.44732 10.1953 8.35355C10.0703 8.25979 10.0001 8.13261 10.0001 8C10.0001 7.86739 10.0703 7.74021 10.1953 7.64645C10.3204 7.55268 10.4899 7.5 10.6667 7.5C10.8436 7.5 11.0131 7.55268 11.1382 7.64645C11.2632 7.74021 11.3334 7.86739 11.3334 8C11.3334 8.13261 11.2632 8.25979 11.1382 8.35355C11.0131 8.44732 10.8436 8.5 10.6667 8.5ZM7.33341 6C7.33341 6.13261 7.40365 6.25979 7.52868 6.35355C7.6537 6.44732 7.82327 6.5 8.00008 6.5C8.17689 6.5 8.34646 6.44732 8.47149 6.35355C8.59651 6.25979 8.66675 6.13261 8.66675 6C8.66675 5.86739 8.59651 5.74021 8.47149 5.64645C8.34646 5.55268 8.17689 5.5 8.00008 5.5C7.82327 5.5 7.6537 5.55268 7.52868 5.64645C7.40365 5.74021 7.33341 5.86739 7.33341 6ZM10.6667 6.5C10.4899 6.5 10.3204 6.44732 10.1953 6.35355C10.0703 6.25979 10.0001 6.13261 10.0001 6C10.0001 5.86739 10.0703 5.74021 10.1953 5.64645C10.3204 5.55268 10.4899 5.5 10.6667 5.5C10.8436 5.5 11.0131 5.55268 11.1382 5.64645C11.2632 5.74021 11.3334 5.86739 11.3334 6C11.3334 6.13261 11.2632 6.25979 11.1382 6.35355C11.0131 6.44732 10.8436 6.5 10.6667 6.5ZM5.33341 3.5C5.1566 3.5 4.98703 3.55268 4.86201 3.64645C4.73699 3.74021 4.66675 3.86739 4.66675 4C4.66675 4.13261 4.73699 4.25979 4.86201 4.35355C4.98703 4.44732 5.1566 4.5 5.33341 4.5H10.6667C10.8436 4.5 11.0131 4.44732 11.1382 4.35355C11.2632 4.25979 11.3334 4.13261 11.3334 4C11.3334 3.86739 11.2632 3.74021 11.1382 3.64645C11.0131 3.55268 10.8436 3.5 10.6667 3.5H5.33341Z"
                  fill="#A7A7A7"/>
            <path fill-rule="evenodd" clip-rule="evenodd"
                  d="M4 1.5C3.46957 1.5 2.96086 1.65804 2.58579 1.93934C2.21071 2.22064 2 2.60218 2 3V9C2 9.39782 2.21071 9.77936 2.58579 10.0607C2.96086 10.342 3.46957 10.5 4 10.5H12C12.5304 10.5 13.0391 10.342 13.4142 10.0607C13.7893 9.77936 14 9.39782 14 9V3C14 2.60218 13.7893 2.22064 13.4142 1.93934C13.0391 1.65804 12.5304 1.5 12 1.5H4ZM12 2.5H4C3.82319 2.5 3.65362 2.55268 3.5286 2.64645C3.40357 2.74021 3.33333 2.86739 3.33333 3V9C3.33333 9.13261 3.40357 9.25979 3.5286 9.35355C3.65362 9.44732 3.82319 9.5 4 9.5H12C12.1768 9.5 12.3464 9.44732 12.4714 9.35355C12.5964 9.25979 12.6667 9.13261 12.6667 9V3C12.6667 2.86739 12.5964 2.74021 12.4714 2.64645C12.3464 2.55268 12.1768 2.5 12 2.5Z"
                  fill="#A7A7A7"/>
        </g>
        <defs>
            <clipPath id="clip0_55630_362">
                <rect width="16" height="12" fill="white"/>
            </clipPath>
        </defs>
    </g>
</svg>