<svg width="591" height="1019" viewBox="0 0 591 1019" fill="none" xmlns="http://www.w3.org/2000/svg">
    <g opacity="0.5">
        <path d="M645.645 113.497L528.139 182.361" stroke="url(#paint0_linear_4537_888)"/>
        <path d="M597.003 299.867L528.139 182.362" stroke="#B2B2B2"/>
        <path d="M597.003 299.867L440.329 391.687" stroke="#B2B2B2"/>
        <path d="M528.139 182.361L371.464 274.181" stroke="url(#paint1_linear_4537_888)"/>
        <path d="M440.329 391.687L371.464 274.181" stroke="#B2B2B2"/>
        <path d="M597.003 299.867L528.139 182.362" stroke="url(#paint2_linear_4537_888)"/>
        <path d="M97.2841 434.865L214.79 366" stroke="#B2B2B2"/>
        <path d="M166.148 552.37L283.654 483.506" stroke="#B2B2B2"/>
        <path d="M214.79 366L283.654 483.506" stroke="#B2B2B2"/>
        <path d="M97.2841 434.865L166.148 552.37" stroke="#B2B2B2"/>
        <path d="M214.79 366L371.465 274.181" stroke="url(#paint3_linear_4537_888)"/>
        <path d="M283.654 483.506L440.329 391.687" stroke="#B2B2B2"/>
        <path d="M214.79 366L283.654 483.506" stroke="#B2B2B2"/>
        <path d="M440.328 391.686L557.834 322.822" stroke="#B2B2B2"/>
        <path d="M509.193 509.192L626.699 440.328" stroke="#B2B2B2"/>
        <path d="M557.835 322.822L626.699 440.328" stroke="#B2B2B2"/>
        <path d="M557.834 322.822L714.509 231.003" stroke="#B2B2B2"/>
        <path d="M557.834 322.822L626.699 440.328" stroke="#B2B2B2"/>
        <path d="M509.193 509.192L391.687 578.057" stroke="#B2B2B2"/>
        <path d="M440.329 391.686L322.823 460.551" stroke="#B2B2B2"/>
        <path d="M391.688 578.057L322.823 460.551" stroke="#B2B2B2"/>
        <path d="M391.687 578.056L235.013 669.876" stroke="#B2B2B2"/>
        <path d="M322.823 460.551L166.149 552.37" stroke="#B2B2B2"/>
        <path d="M235.013 669.876L166.149 552.37" stroke="url(#paint4_linear_4537_888)"/>
        <path d="M391.687 578.056L322.823 460.551" stroke="#B2B2B2"/>
        <path d="M734.702 534.872L578.027 626.691" stroke="#B2B2B2"/>
        <path d="M665.838 417.366L509.163 509.186" stroke="#B2B2B2"/>
        <path d="M578.027 626.691L509.163 509.186" stroke="#B2B2B2"/>
        <path d="M234.983 669.869L352.488 601.004" stroke="#B2B2B2"/>
        <path d="M303.847 787.375L421.353 718.51" stroke="#B2B2B2"/>
        <path d="M352.489 601.004L421.353 718.51" stroke="#B2B2B2"/>
        <path d="M234.983 669.869L303.847 787.375" stroke="#B2B2B2"/>
        <path d="M352.489 601.004L509.164 509.185" stroke="url(#paint5_linear_4537_888)"/>
        <path d="M421.353 718.51L578.028 626.691" stroke="#B2B2B2"/>
        <path d="M352.489 601.004L421.353 718.51" stroke="#B2B2B2"/>
        <path d="M578.027 626.691L695.533 557.827" stroke="#B2B2B2"/>
        <path d="M646.892 744.197L529.386 813.061" stroke="#B2B2B2"/>
        <path d="M578.027 626.691L460.521 695.555" stroke="#B2B2B2"/>
        <path d="M529.386 813.062L460.522 695.556" stroke="#B2B2B2"/>
        <path d="M529.386 813.062L372.711 904.881" stroke="#B2B2B2"/>
        <path d="M460.521 695.556L303.847 787.375" stroke="#B2B2B2"/>
        <path d="M372.711 904.881L303.847 787.375" stroke="#B2B2B2"/>
        <path d="M529.386 813.062L460.521 695.556" stroke="url(#paint6_linear_4537_888)"/>
    </g>
    <defs>
        <linearGradient id="paint0_linear_4537_888" x1="621.653" y1="107.235" x2="562.831" y2="160.098" gradientUnits="userSpaceOnUse">
            <stop stop-color="#13B0F5"/>
            <stop offset="1" stop-color="#CA24B4"/>
        </linearGradient>
        <linearGradient id="paint1_linear_4537_888" x1="527.723" y1="183.954" x2="427.611" y2="316.567" gradientUnits="userSpaceOnUse">
            <stop stop-color="#E70FAA"/>
            <stop offset="1" stop-color="#13B0F5"/>
        </linearGradient>
        <linearGradient id="paint2_linear_4537_888" x1="603.265" y1="275.876" x2="550.403" y2="217.053" gradientUnits="userSpaceOnUse">
            <stop stop-color="#13B0F5"/>
            <stop offset="1" stop-color="#CA24B4"/>
        </linearGradient>
        <linearGradient id="paint3_linear_4537_888" x1="246.779" y1="374.349" x2="325.209" y2="303.866" gradientUnits="userSpaceOnUse">
            <stop stop-color="#00C0FD"/>
            <stop offset="0.421875" stop-color="#E70FAA"/>
            <stop offset="1" stop-color="#00C0FD"/>
        </linearGradient>
        <linearGradient id="paint4_linear_4537_888" x1="235.013" y1="669.876" x2="134.429" y2="594.956" gradientUnits="userSpaceOnUse">
            <stop stop-color="#8E34FF"/>
            <stop offset="0.494792" stop-color="#CA24B4"/>
            <stop offset="1" stop-color="#8E34FF"/>
        </linearGradient>
        <linearGradient id="paint5_linear_4537_888" x1="392.558" y1="577.859" x2="465.932" y2="479.799" gradientUnits="userSpaceOnUse">
            <stop stop-color="#13B0F5"/>
            <stop offset="0.75" stop-color="#CA24B4"/>
            <stop offset="1" stop-color="#13B0F5"/>
        </linearGradient>
        <linearGradient id="paint6_linear_4537_888" x1="529.386" y1="813.062" x2="428.801" y2="738.142" gradientUnits="userSpaceOnUse">
            <stop stop-color="#13B0F5"/>
            <stop offset="0.0582928" stop-color="#CA24B4"/>
            <stop offset="1" stop-color="#13B0F5"/>
        </linearGradient>
    </defs>
</svg>
